<svg xmlns="http://www.w3.org/2000/svg" xmlns:xlink="http://www.w3.org/1999/xlink" xmlns:inkscape="http://www.inkscape.org/namespaces/inkscape" version="1.1" width="612" height="792" viewBox="0 0 612 792">
<defs>
<clipPath id="clip_0">
<path transform="matrix(.4154786,0,0,.4154786,0,0)" d="M-2-2H1475V1832H-2V-2Z"/>
</clipPath>
</defs>
<g>
<g clip-path="url(#clip_0)">
<path transform="matrix(.4154786,0,0,.4154786,0,0)" d="M0 0H418V70H0V0Z" fill="#ffffff"/>
<path transform="matrix(.4154786,0,0,.4154786,0,0)" d="M0 70H34V1831H0V70Z" fill="#ffffff"/>
<path transform="matrix(.4154786,0,0,.4154786,0,0)" d="M34 105H418V313H34V105Z" fill="#ffffff"/>
<path transform="matrix(.4154786,0,0,.4154786,0,0)" d="M550 105H1254V209H550V105Z" fill="#ffffff"/>
<path transform="matrix(.4154786,0,0,.4154786,0,0)" d="M418 209H506V313H418V209Z" fill="#ffffff"/>
<path transform="matrix(.4154786,0,0,.4154786,0,0)" d="M726 209H1254V313H726V209Z" fill="#ffffff"/>
<path transform="matrix(.4154786,0,0,.4154786,0,0)" d="M34 348H726V660H34V348Z" fill="#ffffff"/>
<path transform="matrix(.4154786,0,0,.4154786,0,0)" d="M902 348H1430V452H902V348Z" fill="#ffffff"/>
<path transform="matrix(.4154786,0,0,.4154786,0,0)" d="M946 452H1430V556H946V452Z" fill="#ffffff"/>
<path transform="matrix(.4154786,0,0,.4154786,0,0)" d="M726 556H814V660H726V556Z" fill="#ffffff"/>
<path transform="matrix(.4154786,0,0,.4154786,0,0)" d="M1078 556H1430V660H1078V556Z" fill="#ffffff"/>
<path transform="matrix(.4154786,0,0,.4154786,0,0)" d="M34 695H1078V903H34V695Z" fill="#ffffff"/>
<path transform="matrix(.4154786,0,0,.4154786,0,0)" d="M1254 695H1430V799H1254V695Z" fill="#ffffff"/>
<path transform="matrix(.4154786,0,0,.4154786,0,0)" d="M1078 799H1166V903H1078V799Z" fill="#ffffff"/>
<path transform="matrix(.4154786,0,0,.4154786,0,0)" d="M1386 799H1430V903H1386V799Z" fill="#ffffff"/>
<path transform="matrix(.4154786,0,0,.4154786,0,0)" d="M34 938H682V1042H34V938Z" fill="#ffffff"/>
<path transform="matrix(.4154786,0,0,.4154786,0,0)" d="M34 1077H418V1306H34V1077Z" fill="#ffffff"/>
<path transform="matrix(.4154786,0,0,.4154786,0,0)" d="M418 1285H1474V1306H418V1285Z" fill="#ffffff"/>
<path transform="matrix(.4154786,0,0,.4154786,0,0)" d="M726 1549H1474V1684H726V1549Z" fill="#ffffff"/>
<path transform="matrix(.4154786,0,0,.4154786,0,0)" d="M34 1684H1474V1831H34V1684Z" fill="#ffffff"/>
<path transform="matrix(.4154786,0,0,.4154786,0,0)" d="M417-1H1474V35H417V-1Z" fill="#2f75b5"/>
<path transform="matrix(.4154786,0,0,.4154786,0,0)" d="M417 34H1474V70H417V34Z" fill="#bdd7ee"/>
<path transform="matrix(.4154786,0,0,.4154786,0,0)" d="M33 69H1474V105H33V69Z" fill="#cccccc"/>
<path transform="matrix(.4154786,0,0,.4154786,0,0)" d="M417 104H506V209H417V104Z" fill="#bdd7ee"/>
<path transform="matrix(.4154786,0,0,.4154786,0,0)" d="M505 104H550V209H505V104Z" fill="#ea9999"/>
<path transform="matrix(.4154786,0,0,.4154786,0,0)" d="M1253 104H1474V209H1253V104Z" fill="#ffffff"/>
<path transform="matrix(.4154786,0,0,.4154786,0,0)" d="M505 208H550V313H505V208Z" fill="#bdd7ee"/>
<path transform="matrix(.4154786,0,0,.4154786,0,0)" d="M549 208H594V313H549V208Z" fill="#b6d7a8"/>
<path transform="matrix(.4154786,0,0,.4154786,0,0)" d="M593 208H682V313H593V208Z" fill="#bdd7ee"/>
<path transform="matrix(.4154786,0,0,.4154786,0,0)" d="M681 208H726V313H681V208Z" fill="#b6d7a8"/>
<path transform="matrix(.4154786,0,0,.4154786,0,0)" d="M1253 208H1474V313H1253V208Z" fill="#ffffff"/>
<path transform="matrix(.4154786,0,0,.4154786,0,0)" d="M33 312H1474V348H33V312Z" fill="#cccccc"/>
<path transform="matrix(.4154786,0,0,.4154786,0,0)" d="M725 347H858V556H725V347Z" fill="#bdd7ee"/>
<path transform="matrix(.4154786,0,0,.4154786,0,0)" d="M857 347H902V452H857V347Z" fill="#ea9999"/>
<path transform="matrix(.4154786,0,0,.4154786,0,0)" d="M1429 347H1474V452H1429V347Z" fill="#ffffff"/>
<path transform="matrix(.4154786,0,0,.4154786,0,0)" d="M857 451H902V556H857V451Z" fill="#bdd7ee"/>
<path transform="matrix(.4154786,0,0,.4154786,0,0)" d="M901 451H946V556H901V451Z" fill="#b6d7a8"/>
<path transform="matrix(.4154786,0,0,.4154786,0,0)" d="M1429 451H1474V556H1429V451Z" fill="#ffffff"/>
<path transform="matrix(.4154786,0,0,.4154786,0,0)" d="M813 555H858V660H813V555Z" fill="#bdd7ee"/>
<path transform="matrix(.4154786,0,0,.4154786,0,0)" d="M857 555H902V660H857V555Z" fill="#b6d7a8"/>
<path transform="matrix(.4154786,0,0,.4154786,0,0)" d="M901 555H1034V660H901V555Z" fill="#bdd7ee"/>
<path transform="matrix(.4154786,0,0,.4154786,0,0)" d="M1033 555H1078V660H1033V555Z" fill="#b6d7a8"/>
<path transform="matrix(.4154786,0,0,.4154786,0,0)" d="M1429 555H1474V660H1429V555Z" fill="#ffffff"/>
<path transform="matrix(.4154786,0,0,.4154786,0,0)" d="M33 659H1474V695H33V659Z" fill="#cccccc"/>
<path transform="matrix(.4154786,0,0,.4154786,0,0)" d="M1077 694H1210V799H1077V694Z" fill="#bdd7ee"/>
<path transform="matrix(.4154786,0,0,.4154786,0,0)" d="M1209 694H1254V799H1209V694Z" fill="#ea9999"/>
<path transform="matrix(.4154786,0,0,.4154786,0,0)" d="M1429 694H1474V799H1429V694Z" fill="#ffffff"/>
<path transform="matrix(.4154786,0,0,.4154786,0,0)" d="M1165 798H1210V903H1165V798Z" fill="#bdd7ee"/>
<path transform="matrix(.4154786,0,0,.4154786,0,0)" d="M1209 798H1254V903H1209V798Z" fill="#b6d7a8"/>
<path transform="matrix(.4154786,0,0,.4154786,0,0)" d="M1253 798H1342V903H1253V798Z" fill="#bdd7ee"/>
<path transform="matrix(.4154786,0,0,.4154786,0,0)" d="M1341 798H1386V903H1341V798Z" fill="#b6d7a8"/>
<path transform="matrix(.4154786,0,0,.4154786,0,0)" d="M1429 798H1474V903H1429V798Z" fill="#ffffff"/>
<path transform="matrix(.4154786,0,0,.4154786,0,0)" d="M33 902H1474V938H33V902Z" fill="#cccccc"/>
<path transform="matrix(.4154786,0,0,.4154786,0,0)" d="M681 937H726V1042H681V937Z" fill="#bdd7ee"/>
<path transform="matrix(.4154786,0,0,.4154786,0,0)" d="M725 937H770V1042H725V937Z" fill="#b6d7a8"/>
<path transform="matrix(.4154786,0,0,.4154786,0,0)" d="M769 937H814V1042H769V937Z" fill="#ea9999"/>
<path transform="matrix(.4154786,0,0,.4154786,0,0)" d="M813 937H1078V1042H813V937Z" fill="#bdd7ee"/>
<path transform="matrix(.4154786,0,0,.4154786,0,0)" d="M1077 937H1122V1042H1077V937Z" fill="#b6d7a8"/>
<path transform="matrix(.4154786,0,0,.4154786,0,0)" d="M1121 937H1166V1042H1121V937Z" fill="#ea9999"/>
<path transform="matrix(.4154786,0,0,.4154786,0,0)" d="M1165 937H1386V1042H1165V937Z" fill="#bdd7ee"/>
<path transform="matrix(.4154786,0,0,.4154786,0,0)" d="M1385 937H1430V1042H1385V937Z" fill="#b6d7a8"/>
<path transform="matrix(.4154786,0,0,.4154786,0,0)" d="M1429 937H1474V1042H1429V937Z" fill="#ea9999"/>
<path transform="matrix(.4154786,0,0,.4154786,0,0)" d="M33 1041H1474V1077H33V1041Z" fill="#cccccc"/>
<path transform="matrix(.4154786,0,0,.4154786,0,0)" d="M417 1076H726V1181H417V1076Z" fill="#bdd7ee"/>
<path transform="matrix(.4154786,0,0,.4154786,0,0)" d="M725 1076H770V1181H725V1076Z" fill="#b6d7a8"/>
<path transform="matrix(.4154786,0,0,.4154786,0,0)" d="M769 1076H1078V1181H769V1076Z" fill="#bdd7ee"/>
<path transform="matrix(.4154786,0,0,.4154786,0,0)" d="M1077 1076H1122V1181H1077V1076Z" fill="#b6d7a8"/>
<path transform="matrix(.4154786,0,0,.4154786,0,0)" d="M1121 1076H1386V1181H1121V1076Z" fill="#bdd7ee"/>
<path transform="matrix(.4154786,0,0,.4154786,0,0)" d="M1385 1076H1430V1181H1385V1076Z" fill="#b6d7a8"/>
<path transform="matrix(.4154786,0,0,.4154786,0,0)" d="M1429 1076H1474V1181H1429V1076Z" fill="#ffffff"/>
<path transform="matrix(.4154786,0,0,.4154786,0,0)" d="M417 1180H462V1285H417V1180Z" fill="#bdd7ee"/>
<path transform="matrix(.4154786,0,0,.4154786,0,0)" d="M461 1180H638V1285H461V1180Z" fill="#ffffff"/>
<path transform="matrix(.4154786,0,0,.4154786,0,0)" d="M637 1180H682V1285H637V1180Z" fill="#bdd7ee"/>
<path transform="matrix(.4154786,0,0,.4154786,0,0)" d="M681 1180H902V1285H681V1180Z" fill="#ffffff"/>
<path transform="matrix(.4154786,0,0,.4154786,0,0)" d="M901 1180H946V1285H901V1180Z" fill="#ea9999"/>
<path transform="matrix(.4154786,0,0,.4154786,0,0)" d="M945 1180H1166V1285H945V1180Z" fill="#ffffff"/>
<path transform="matrix(.4154786,0,0,.4154786,0,0)" d="M1165 1180H1210V1285H1165V1180Z" fill="#bdd7ee"/>
<path transform="matrix(.4154786,0,0,.4154786,0,0)" d="M1209 1180H1430V1285H1209V1180Z" fill="#ffffff"/>
<path transform="matrix(.4154786,0,0,.4154786,0,0)" d="M1429 1180H1474V1285H1429V1180Z" fill="#ea9999"/>
<path transform="matrix(.4154786,0,0,.4154786,0,0)" d="M33 1305H726V1684H33V1305Z" fill="#b6d7a8"/>
<path transform="matrix(.4154786,0,0,.4154786,0,0)" d="M725 1305H1474V1549H725V1305Z" fill="#ea9999"/>
<path transform="matrix(.4154786,0,0,.4154786,0,0)" stroke-width="1" stroke-linecap="butt" stroke-dasharray="1,1" stroke-miterlimit="10" stroke-linejoin="miter" fill="none" stroke="#000000" d="M-.5 1809V1831M-1 1830.5H34M461.5 105V312M461.5 348V659M461.5 695V902M461.5 938V1041M461.5 1077V1181M505.5 105V312M505.5 348V659M505.5 695V902M505.5 938V1041M505.5 1077V1181M549.5 105V312M549.5 348V659M549.5 695V902M549.5 938V1041M549.5 1077V1181M593.5 105V312M593.5 348V659M593.5 695V902M593.5 938V1041M593.5 1077V1181M637.5 105V312M637.5 348V659M637.5 695V902M637.5 938V1041M637.5 1077V1181M681.5 105V312M681.5 348V659M681.5 695V902M681.5 938V1041M681.5 1077V1181M725.5 105V312M725.5 348V659M725.5 695V902M725.5 938V1041M725.5 1077V1181M769.5 105V312M769.5 348V659M769.5 695V902M769.5 938V1041M769.5 1077V1181M813.5 105V312M813.5 348V659M813.5 695V902M813.5 938V1041M813.5 1077V1181M857.5 105V312M857.5 348V659M857.5 695V902M857.5 938V1041M857.5 1077V1181M901.5 105V312M901.5 348V659M901.5 695V902M901.5 938V1041M901.5 1077V1181M945.5 105V312M945.5 348V659M945.5 695V902M945.5 938V1041M945.5 1077V1181M989.5 105V312M989.5 348V659M989.5 695V902M989.5 938V1041M989.5 1077V1181M1033.5 105V312M1033.5 348V659M1033.5 695V902M1033.5 938V1041M1033.5 1077V1181M1077.5 105V312M1077.5 348V659M1077.5 695V902M1077.5 938V1041M1077.5 1077V1181M1121.5 105V312M1121.5 348V659M1121.5 695V902M1121.5 938V1041M1121.5 1077V1181M1165.5 105V312M1165.5 348V659M1165.5 695V902M1165.5 938V1041M1165.5 1077V1181M1209.5 105V312M1209.5 348V659M1209.5 695V902M1209.5 938V1041M1209.5 1077V1181M1253.5 105V312M1253.5 348V659M418 798.5H1253M1253.5 695V798M1253.5 938V1041M1253.5 1077V1181M1297.5 105V312M1297.5 348V659M1297.5 695V902M1297.5 938V1041M1297.5 1077V1181M1341.5 105V312M1341.5 348V659M1341.5 695V902M1341.5 938V1041M1341.5 1077V1181M1385.5 105V312M1385.5 348V659M1254 798.5H1385M1385.5 695V798M1385.5 938V1041M1385.5 1077V1181M1429.5 105V312M1429.5 348V659M1429.5 695V902M1429.5 1077V1181M1473.5 0V34M418 208.5H1473M418 451.5H1473M418 555.5H1473M1386 798.5H1473M418 1180.5H1473"/>
<path transform="matrix(.4154786,0,0,.4154786,0,0)" stroke-width="1" stroke-linecap="butt" stroke-miterlimit="10" stroke-linejoin="miter" fill="none" stroke="#000000" d="M33.5 69V1283M106.5 69V1283M417.5-1V70M33 208.5H418M417.5 104V313M33 451.5H418M33 555.5H418M417.5 451V660M33 798.5H418M417.5 694V903M417.5 937V1042M33 1180.5H418M417.5 1076V1283M417-.5H1474M33 69.5H1474M33 104.5H1474M1473.5 69V105M33 312.5H1474M33 347.5H1474M33 659.5H1474M33 694.5H1474M33 902.5H1474M33 937.5H1474M33 1041.5H1474M33 1076.5H1474M1473.5 1076V1181"/>
<path transform="matrix(.4154786,0,0,.4154786,0,0)" stroke-width="1" stroke-linecap="butt" stroke-miterlimit="10" stroke-linejoin="miter" fill="none" stroke="#434343" d="M417.5 348V451M1253.5 798V902M1385.5 798V902M1429.5 938V1041M1473.5 34V69M1473.5 105V312M1473.5 313V347M1473.5 348V659M1473.5 660V694M1473.5 695V902M1473.5 903V937M1473.5 938V1041M1473.5 1042V1076M1473.5 1181V1283"/>
<path transform="matrix(.4154786,0,0,.4154786,0,0)" stroke-width="1" stroke-linecap="butt" stroke-dasharray="1,1" stroke-miterlimit="10" stroke-linejoin="miter" fill="none" stroke="#434343" d="M461.5 1181V1283M505.5 1181V1283M549.5 1181V1283M593.5 1181V1283M637.5 1181V1283M681.5 1181V1283M725.5 1181V1283M769.5 1181V1283M813.5 1181V1283M857.5 1181V1283M901.5 1181V1283M945.5 1181V1283M989.5 1181V1283M1033.5 1181V1283M1077.5 1181V1283M1121.5 1181V1283M1165.5 1181V1283M1209.5 1181V1283M1253.5 1181V1283M1297.5 1181V1283M1341.5 1181V1283M1385.5 1181V1283M1429.5 1181V1283"/>
<path transform="matrix(.4154786,0,0,.4154786,0,0)" stroke-width="2" stroke-linecap="butt" stroke-miterlimit="10" stroke-linejoin="miter" fill="none" stroke="#000000" d="M33 1284H1474"/>
<text fill="#ffffff" xml:space="preserve" transform="matrix(.4154786 0 0 .4154786 0 0)" font-size="26" font-family="Arial" font-weight="bold"><tspan y="26.387696" x="894 901.202 922.86007 943.0621 961.83407 977.69406"> MONTH</tspan></text>
<text xml:space="preserve" transform="matrix(.4154786 0 0 .4154786 0 0)" font-size="26" font-family="Arial" font-weight="bold"><tspan y="61.387697" x="432">1</tspan></text>
<text xml:space="preserve" transform="matrix(.4154786 0 0 .4154786 0 0)" font-size="26" font-family="Arial" font-weight="bold"><tspan y="61.387697" x="476">2</tspan></text>
<text xml:space="preserve" transform="matrix(.4154786 0 0 .4154786 0 0)" font-size="26" font-family="Arial" font-weight="bold"><tspan y="61.387697" x="520">3</tspan></text>
<text xml:space="preserve" transform="matrix(.4154786 0 0 .4154786 0 0)" font-size="26" font-family="Arial" font-weight="bold"><tspan y="61.387697" x="564">4</tspan></text>
<text xml:space="preserve" transform="matrix(.4154786 0 0 .4154786 0 0)" font-size="26" font-family="Arial" font-weight="bold"><tspan y="61.387697" x="608">5</tspan></text>
<text xml:space="preserve" transform="matrix(.4154786 0 0 .4154786 0 0)" font-size="26" font-family="Arial" font-weight="bold"><tspan y="61.387697" x="652">6</tspan></text>
<text xml:space="preserve" transform="matrix(.4154786 0 0 .4154786 0 0)" font-size="26" font-family="Arial" font-weight="bold"><tspan y="61.387697" x="696">7</tspan></text>
<text xml:space="preserve" transform="matrix(.4154786 0 0 .4154786 0 0)" font-size="26" font-family="Arial" font-weight="bold"><tspan y="61.387697" x="740">8</tspan></text>
<text xml:space="preserve" transform="matrix(.4154786 0 0 .4154786 0 0)" font-size="26" font-family="Arial" font-weight="bold"><tspan y="61.387697" x="784">9</tspan></text>
<text xml:space="preserve" transform="matrix(.4154786 0 0 .4154786 0 0)" font-size="26" font-family="Arial" font-weight="bold"><tspan y="61.387697" x="821 835.456">10</tspan></text>
<text xml:space="preserve" transform="matrix(.4154786 0 0 .4154786 0 0)" font-size="26" font-family="Arial" font-weight="bold"><tspan y="61.387697" x="865 879.456">11</tspan></text>
<text xml:space="preserve" transform="matrix(.4154786 0 0 .4154786 0 0)" font-size="26" font-family="Arial" font-weight="bold"><tspan y="61.387697" x="909 923.456">12</tspan></text>
<text xml:space="preserve" transform="matrix(.4154786 0 0 .4154786 0 0)" font-size="26" font-family="Arial" font-weight="bold"><tspan y="61.387697" x="953 967.456">13</tspan></text>
<text xml:space="preserve" transform="matrix(.4154786 0 0 .4154786 0 0)" font-size="26" font-family="Arial" font-weight="bold"><tspan y="61.387697" x="997 1011.456">14</tspan></text>
<text xml:space="preserve" transform="matrix(.4154786 0 0 .4154786 0 0)" font-size="26" font-family="Arial" font-weight="bold"><tspan y="61.387697" x="1041 1055.456">15</tspan></text>
<text xml:space="preserve" transform="matrix(.4154786 0 0 .4154786 0 0)" font-size="26" font-family="Arial" font-weight="bold"><tspan y="61.387697" x="1085 1099.456">16</tspan></text>
<text xml:space="preserve" transform="matrix(.4154786 0 0 .4154786 0 0)" font-size="26" font-family="Arial" font-weight="bold"><tspan y="61.387697" x="1129 1143.456">17</tspan></text>
<text xml:space="preserve" transform="matrix(.4154786 0 0 .4154786 0 0)" font-size="26" font-family="Arial" font-weight="bold"><tspan y="61.387697" x="1173 1187.456">18</tspan></text>
<text xml:space="preserve" transform="matrix(.4154786 0 0 .4154786 0 0)" font-size="26" font-family="Arial" font-weight="bold"><tspan y="61.387697" x="1217 1231.456">19</tspan></text>
<text xml:space="preserve" transform="matrix(.4154786 0 0 .4154786 0 0)" font-size="26" font-family="Arial" font-weight="bold"><tspan y="61.387697" x="1261 1275.456">20</tspan></text>
<text xml:space="preserve" transform="matrix(.4154786 0 0 .4154786 0 0)" font-size="26" font-family="Arial" font-weight="bold"><tspan y="61.387697" x="1305 1319.456">21</tspan></text>
<text xml:space="preserve" transform="matrix(.4154786 0 0 .4154786 0 0)" font-size="26" font-family="Arial" font-weight="bold"><tspan y="61.387697" x="1349 1363.456">22</tspan></text>
<text xml:space="preserve" transform="matrix(.4154786 0 0 .4154786 0 0)" font-size="26" font-family="Arial" font-weight="bold"><tspan y="61.387697" x="1393 1407.456">23</tspan></text>
<text xml:space="preserve" transform="matrix(.4154786 0 0 .4154786 0 0)" font-size="26" font-family="Arial" font-weight="bold"><tspan y="61.387697" x="1437 1451.456">24</tspan></text>
<text xml:space="preserve" transform="matrix(.4154786 0 0 .4154786 0 0)" font-size="26" font-family="Arial" font-weight="bold"><tspan y="96.387699" x="37 61.517999 78.834">WP1</tspan></text>
<text xml:space="preserve" transform="matrix(.4154786 0 0 .4154786 0 0)" font-size="26" font-family="Arial" font-weight="bold"><tspan y="96.387699" x="110 128.772 135.974 143.176 159.036 166.23799 180.694 195.15 202.35199 209.55399 228.32599 236.984 244.18599 251.38799 258.59 267.248 281.70399 288.90599 306.222 320.67799 335.13398 342.33598 358.19599 372.65199 381.30998 388.51197 404.37196">Clinical Utility Evaluation</tspan></text>
<text fill="#434343" xml:space="preserve" transform="matrix(.4154786 0 0 .4154786 0 0)" font-size="26" font-family="ArialMT"><tspan y="165.3877" x="37 52.86 67.316 74.518009">T1.1</tspan></text>
<text fill="#434343" xml:space="preserve" transform="matrix(.4154786 0 0 .4154786 0 0)" font-size="26" font-family="ArialMT"><tspan y="150.3877" x="110 127.316 141.772 156.228 170.68399 177.88599 192.34198 199.54398 205.31598 219.77198 234.22797 241.42996 255.88596 263.08796 270.28996 277.49195 291.94795 306.40394 313.60594 328.06193 342.5179 355.5179 361.28993 374.28993 380.06193 394.5179 408.9739">Adaptation of the decision </tspan></text>
<text fill="#434343" xml:space="preserve" transform="matrix(.4154786 0 0 .4154786 0 0)" font-size="26" font-family="ArialMT"><tspan y="180.28516" x="110 123 137.456 146.114 159.114 173.57 180.772 195.228 209.68399 224.13999 229.91199 242.91199 255.91199 261.684 274.684 281.886 303.54399 317.99998 325.20198 339.65797 354.11396">curve analysis method</tspan></text>
<text xml:space="preserve" transform="matrix(.4154786 0 0 .4154786 0 0)" font-size="15.599999" font-family="Arial" font-weight="bold"><tspan y="161.62676" x="511 522.2632 530.93679 535.258">D1.1</tspan></text>
<text fill="#434343" xml:space="preserve" transform="matrix(.4154786 0 0 .4154786 0 0)" font-size="26" font-family="ArialMT"><tspan y="269.3877" x="37 52.86 67.316 74.518009">T1.2</tspan></text>
<text fill="#434343" xml:space="preserve" transform="matrix(.4154786 0 0 .4154786 0 0)" font-size="26" font-family="ArialMT"><tspan y="269.3877" x="110 128.772 143.228 157.68399 164.88599 179.34198 193.79798 208.25397 214.02597 227.02597 240.02597 254.48197">Run analyses</tspan></text>
<text xml:space="preserve" transform="matrix(.4154786 0 0 .4154786 0 0)" font-size="15.599999" font-family="Arial" font-weight="bold"><tspan y="265.62678" x="554 566.9948 575.6684 579.9896">M1.1</tspan></text>
<text xml:space="preserve" transform="matrix(.4154786 0 0 .4154786 0 0)" font-size="15.599999" font-family="Arial" font-weight="bold"><tspan y="265.62678" x="686 698.9948 707.6684 711.9896">M1.2</tspan></text>
<text xml:space="preserve" transform="matrix(.4154786 0 0 .4154786 0 0)" font-size="26" font-family="Arial" font-weight="bold"><tspan y="339.3877" x="37 61.517999 78.834">WP2</tspan></text>
<text xml:space="preserve" transform="matrix(.4154786 0 0 .4154786 0 0)" font-size="26" font-family="Arial" font-weight="bold"><tspan y="339.3877" x="110 128.772 135.974 150.43 164.88599 173.54399 189.40399 203.85999 218.31598 232.77198 248.63198 255.83397 271.69398 286.14997 302.00996 316.46595 325.12394 332.32594 340.98393 348.1859 364.0459 374.1599 388.6159 404.4759 411.6779 426.13389 434.79188 441.99388 457.85389 473.71388 480.91587 504.02989 519.8899 535.7499 550.2059 557.4079">Risk-based benefit prediction models</tspan></text>
<text fill="#434343" xml:space="preserve" transform="matrix(.4154786 0 0 .4154786 0 0)" font-size="26" font-family="ArialMT"><tspan y="408.3877" x="37 52.86 67.316 74.518009">T2.1</tspan></text>
<text fill="#434343" xml:space="preserve" transform="matrix(.4154786 0 0 .4154786 0 0)" font-size="26" font-family="ArialMT"><tspan y="393.3877" x="110 128.772 143.228 156.228 170.68399 176.456 190.91199 205.36798 227.02599 241.482 255.93799 263.13999 270.34199 284.79798 291.99998 299.20198 307.85997 313.63197 326.63197 339.63197">Development of risk-</tspan></text>
<text fill="#434343" xml:space="preserve" transform="matrix(.4154786 0 0 .4154786 0 0)" font-size="26" font-family="ArialMT"><tspan y="423.28517" x="110 124.456 138.912 151.912 166.36801 180.824 188.026 205.342 222.65799 244.316">based BPMs</tspan></text>
<text xml:space="preserve" transform="matrix(.4154786 0 0 .4154786 0 0)" font-size="15.599999" font-family="Arial" font-weight="bold"><tspan y="404.62678" x="863 874.2632 882.93679 887.258">D2.1</tspan></text>
<text fill="#434343" xml:space="preserve" transform="matrix(.4154786 0 0 .4154786 0 0)" font-size="26" font-family="ArialMT"><tspan y="512.3877" x="37 52.86 67.316 74.518009">T2.2</tspan></text>
<text fill="#434343" xml:space="preserve" transform="matrix(.4154786 0 0 .4154786 0 0)" font-size="26" font-family="ArialMT"><tspan y="497.3877" x="110 128.772 143.228 156.228 170.68399 176.456 190.91199 205.36798 227.02599 241.482 255.93799 263.13999 270.34199 284.79798 291.99998 299.20198 313.65797">Development of a </tspan></text>
<text fill="#434343" xml:space="preserve" transform="matrix(.4154786 0 0 .4154786 0 0)" font-size="26" font-family="ArialMT"><tspan y="527.28518" x="110 123 128.772 150.43001 164.88602 170.65802 185.11402 192.31601 198.08802 212.544 227 234.202 241.40399 250.062 264.518 286.176 300.632 319.404 333.86 342.51799">simulation framework</tspan></text>
<text xml:space="preserve" transform="matrix(.4154786 0 0 .4154786 0 0)" font-size="15.599999" font-family="Arial" font-weight="bold"><tspan y="508.62678" x="906 918.9948 927.6684 931.9896">M2.1</tspan></text>
<text fill="#434343" xml:space="preserve" transform="matrix(.4154786 0 0 .4154786 0 0)" font-size="26" font-family="ArialMT"><tspan y="616.3877" x="37 52.86 67.316 74.518009">T2.3</tspan></text>
<text fill="#434343" xml:space="preserve" transform="matrix(.4154786 0 0 .4154786 0 0)" font-size="26" font-family="ArialMT"><tspan y="616.3877" x="110 128.772 143.228 157.68399 164.88599 179.34198 193.79798 208.25397 214.02597 227.02597 240.02597 254.48197">Run analyses</tspan></text>
<text xml:space="preserve" transform="matrix(.4154786 0 0 .4154786 0 0)" font-size="15.599999" font-family="Arial" font-weight="bold"><tspan y="612.6268" x="862 874.9948 883.6684 887.9896">M2.2</tspan></text>
<text xml:space="preserve" transform="matrix(.4154786 0 0 .4154786 0 0)" font-size="15.599999" font-family="Arial" font-weight="bold"><tspan y="612.6268" x="1038 1050.9948 1059.6683 1063.9895">M2.3</tspan></text>
<text xml:space="preserve" transform="matrix(.4154786 0 0 .4154786 0 0)" font-size="26" font-family="Arial" font-weight="bold"><tspan y="686.3877" x="37 61.517999 78.834">WP3</tspan></text>
<text xml:space="preserve" transform="matrix(.4154786 0 0 .4154786 0 0)" font-size="26" font-family="Arial" font-weight="bold"><tspan y="686.3877" x="110 127.316 143.176 157.63199 172.08798 195.20198 211.06198 218.26398 232.71997 239.92197 258.69398 273.14997 289.00996 303.46595 312.12394 319.32594 327.98393 335.1859 352.50193 362.61595 377.07194 392.93196 400.13395 414.58995 423.24794 430.44993 446.30995 462.16993 469.37193 491.0299 506.8899 522.7499 537.2059 544.4079">Ensemble Benefit Prediction Models</tspan></text>
<text fill="#434343" xml:space="preserve" transform="matrix(.4154786 0 0 .4154786 0 0)" font-size="26" font-family="ArialMT"><tspan y="755.3877" x="37 52.86 67.316 74.518009">T3.1</tspan></text>
<text fill="#434343" xml:space="preserve" transform="matrix(.4154786 0 0 .4154786 0 0)" font-size="26" font-family="ArialMT"><tspan y="725.3877" x="110 117.202 131.658 146.11402 160.57 167.772 173.544 180.746 186.518 199.518 213.974 221.176 226.948 241.40399 255.85999 263.06199 277.51799 284.71998 291.92198 313.57997 328.03596 335.23796 349.69395 364.14994 378.60594 391.60594">Identification of methods </tspan></text>
<text fill="#434343" xml:space="preserve" transform="matrix(.4154786 0 0 .4154786 0 0)" font-size="26" font-family="ArialMT"><tspan y="755.28518" x="110 117.202 131.658 138.86 144.632 159.08802 172.08802 177.86002 192.31601 206.772 221.228 228.43 234.202 248.65799 255.85999 263.06199 277.51799 291.97398">to include in the </tspan></text>
<text fill="#434343" xml:space="preserve" transform="matrix(.4154786 0 0 .4154786 0 0)" font-size="26" font-family="ArialMT"><tspan y="785.1826" x="110 124.456 138.912 151.912 166.36801 188.02602 202.48203 208.25403 222.71002">ensembles</tspan></text>
<text xml:space="preserve" transform="matrix(.4154786 0 0 .4154786 0 0)" font-size="15.599999" font-family="Arial" font-weight="bold"><tspan y="751.6268" x="1215 1226.2632 1234.9368 1239.2579">D3.1</tspan></text>
<text fill="#434343" xml:space="preserve" transform="matrix(.4154786 0 0 .4154786 0 0)" font-size="26" font-family="ArialMT"><tspan y="859.3877" x="37 52.86 67.316 74.518009">T3.2</tspan></text>
<text fill="#434343" xml:space="preserve" transform="matrix(.4154786 0 0 .4154786 0 0)" font-size="26" font-family="ArialMT"><tspan y="859.3877" x="110 128.772 143.228 157.68399 164.88599 179.34198 193.79798 208.25397 214.02597 227.02597 240.02597 254.48197">Run analyses</tspan></text>
<text xml:space="preserve" transform="matrix(.4154786 0 0 .4154786 0 0)" font-size="15.599999" font-family="Arial" font-weight="bold"><tspan y="855.6268" x="1214 1226.9948 1235.6683 1239.9895">M3.1</tspan></text>
<text xml:space="preserve" transform="matrix(.4154786 0 0 .4154786 0 0)" font-size="15.599999" font-family="Arial" font-weight="bold"><tspan y="855.6268" x="1346 1358.9948 1367.6683 1371.9895">M3.2</tspan></text>
<text xml:space="preserve" transform="matrix(.4154786 0 0 .4154786 0 0)" font-size="26" font-family="Arial" font-weight="bold"><tspan y="929.3877" x="37 61.517999 78.834">WP4</tspan></text>
<text xml:space="preserve" transform="matrix(.4154786 0 0 .4154786 0 0)" font-size="26" font-family="Arial" font-weight="bold"><tspan y="929.3877" x="110 128.772 135.974 150.43 164.88599 179.34198 202.45598 209.65798 225.51798 239.97397 248.63198 255.83397 271.69398 287.55397 294.75596 309.21195 325.07197 340.93196 348.13395 366.90596 382.76594 405.87995 428.99397 444.85395 460.71394 467.91593 482.37193 496.8279 505.4859 512.6879 528.5479 544.4079 551.6099 573.26797 587.72396 603.5839 618.0399 633.8999 648.3559 671.4699 685.9259 701.7859">Dissemination and Communication Management</tspan></text>
<text fill="#434343" xml:space="preserve" transform="matrix(.4154786 0 0 .4154786 0 0)" font-size="26" font-family="ArialMT"><tspan y="998.3877" x="37 52.86 67.316 74.518009">T4.1</tspan></text>
<text fill="#434343" xml:space="preserve" transform="matrix(.4154786 0 0 .4154786 0 0)" font-size="26" font-family="ArialMT"><tspan y="998.3877" x="110 131.658 146.11402 160.57 175.026 188.026 201.026 209.684 215.45601 229.91202 237.11402 244.31601 258.772 267.43 281.886 296.34199 310.79798 319.45597 333.91197 341.11396 346.88597 361.34196">Manuscript preparation</tspan></text>
<text xml:space="preserve" transform="matrix(.4154786 0 0 .4154786 0 0)" font-size="15.599999" font-family="Arial" font-weight="bold"><tspan y="994.6268" x="730 742.9948 751.6684 755.9896">M4.1</tspan></text>
<text xml:space="preserve" transform="matrix(.4154786 0 0 .4154786 0 0)" font-size="15.599999" font-family="Arial" font-weight="bold"><tspan y="994.6268" x="775 786.2632 794.93679 799.258">D4.1</tspan></text>
<text xml:space="preserve" transform="matrix(.4154786 0 0 .4154786 0 0)" font-size="15.599999" font-family="Arial" font-weight="bold"><tspan y="994.6268" x="1082 1094.9948 1103.6683 1107.9895">M4.2</tspan></text>
<text xml:space="preserve" transform="matrix(.4154786 0 0 .4154786 0 0)" font-size="15.599999" font-family="Arial" font-weight="bold"><tspan y="994.6268" x="1127 1138.2632 1146.9368 1151.2579">D4.2</tspan></text>
<text xml:space="preserve" transform="matrix(.4154786 0 0 .4154786 0 0)" font-size="15.599999" font-family="Arial" font-weight="bold"><tspan y="994.6268" x="1390 1402.9948 1411.6683 1415.9895">M4.3</tspan></text>
<text xml:space="preserve" transform="matrix(.4154786 0 0 .4154786 0 0)" font-size="15.599999" font-family="Arial" font-weight="bold"><tspan y="994.6268" x="1434 1442.6736 1451.3472 1460.0208">2480</tspan></text>
<text xml:space="preserve" transform="matrix(.4154786 0 0 .4154786 0 0)" font-size="26" font-family="Arial" font-weight="bold"><tspan y="1068.4902" x="37 61.517999 78.834">WP5</tspan></text>
<text xml:space="preserve" transform="matrix(.4154786 0 0 .4154786 0 0)" font-size="26" font-family="Arial" font-weight="bold"><tspan y="1068.4902" x="110 127.316 137.43001 153.29001 160.492 174.948 189.40399 198.062 205.26399 226.922 241.37799 257.23799 271.69398 287.55397 302.00996 325.12397 339.57997 355.43995">Project Management</tspan></text>
<text fill="#434343" xml:space="preserve" transform="matrix(.4154786 0 0 .4154786 0 0)" font-size="26" font-family="ArialMT"><tspan y="1172.4902" x="37 52.86 67.316 74.518009">T5.1</tspan></text>
<text fill="#434343" xml:space="preserve" transform="matrix(.4154786 0 0 .4154786 0 0)" font-size="26" font-family="ArialMT"><tspan y="1137.3877" x="110 127.316 141.772 156.228 162 167.772 180.772 195.228 202.43 208.202 222.65799 237.11399 244.31598 251.51798 265.97398 274.63197 281.83396 296.28996 310.74595 317.94795 332.40394 339.60594 354.06193 367.06193">Application for data use</tspan></text>
<text xml:space="preserve" transform="matrix(.4154786 0 0 .4154786 0 0)" font-size="15.599999" font-family="Arial" font-weight="bold"><tspan y="1133.6267" x="730 742.9948 751.6684 755.9896">&#x039c;5.1</tspan></text>
<text xml:space="preserve" transform="matrix(.4154786 0 0 .4154786 0 0)" font-size="15.599999" font-family="Arial" font-weight="bold"><tspan y="1133.6267" x="1082 1094.9948 1103.6683 1107.9895">&#x039c;5.2</tspan></text>
<text xml:space="preserve" transform="matrix(.4154786 0 0 .4154786 0 0)" font-size="15.599999" font-family="Arial" font-weight="bold"><tspan y="1133.6267" x="1390 1402.9948 1411.6683 1415.9895">&#x039c;5.3</tspan></text>
<text fill="#434343" xml:space="preserve" transform="matrix(.4154786 0 0 .4154786 0 0)" font-size="26" font-family="ArialMT"><tspan y="1274.4902" x="37 52.86 67.316 74.518009">T5.2</tspan></text>
<text fill="#434343" xml:space="preserve" transform="matrix(.4154786 0 0 .4154786 0 0)" font-size="26" font-family="ArialMT"><tspan y="1226.3877" x="110 131.658 146.11402 160.57 167.772 173.544 188 202.456 215.456 222.65799 241.43 247.202 254.40399 268.86 276.06199 283.26399 297.71998 312.17597">Meetings with the </tspan></text>
<text fill="#434343" xml:space="preserve" transform="matrix(.4154786 0 0 .4154786 0 0)" font-size="26" font-family="ArialMT"><tspan y="1256.2852" x="110 127.316 141.772 154.772 160.544 173.544 188 196.658 209.658 216.86 235.632 250.08802 271.746 293.404 299.176 306.378 313.58 328.03599">Advisory Committee</tspan></text>
<text xml:space="preserve" transform="matrix(.4154786 0 0 .4154786 0 0)" font-size="15.599999" font-family="Arial" font-weight="bold"><tspan y="1237.6267" x="907 918.2632 926.93679 931.258">D5.1</tspan></text>
<text xml:space="preserve" transform="matrix(.4154786 0 0 .4154786 0 0)" font-size="15.599999" font-family="Arial" font-weight="bold"><tspan y="1237.6267" x="1435 1446.2632 1454.9368 1459.2579">D5.2</tspan></text>
<text xml:space="preserve" transform="matrix(.4154786 0 0 .4154786 0 0)" font-size="19.5" font-family="Arial" font-weight="bold"><tspan y="1325.8677" x="329 345.2435 350.645 356.04649 366.8885 377.7305 384.224 396.119 408.01399 418.856">Milestones</tspan></text>
<text xml:space="preserve" transform="matrix(.4154786 0 0 .4154786 0 0)" font-size="19.5" font-family="Arial" font-weight="bold"><tspan y="1325.2908" x="1042 1056.079 1066.921 1072.3225 1077.724 1088.566 1099.4081 1106.9935 1117.8356 1129.7306 1135.1321 1145.9741">Deliverables</tspan></text>
<text xml:space="preserve" transform="matrix(.4154786 0 0 .4154786 0 0)" font-size="19.5" font-family="Arial" font-weight="bold"><tspan y="1352.8677" x="37 53.2435 64.0855 69.487 80.329">M1.1:</tspan></text>
<text xml:space="preserve" transform="matrix(.4154786 0 0 .4154786 0 0)" font-size="19.5" font-family="ArialMT"><tspan y="1352.8677" x="86.84497 92.24647 105.23347 111.72697 122.56897 127.97047 138.81247 148.56247 159.40447 163.73346 169.13497 174.53647 185.37847 191.87197 197.27347 202.67498 213.51697 224.35897 229.76047 239.51047 243.83946 248.16846 259.01048 263.33949 273.08949 283.9315 288.2605 293.662 304.504 309.9055 314.2345 318.5635 322.89253 328.294 338.044 343.4455 354.2875 364.0375 374.87953 379.20854 390.05055 400.89256 406.29405 410.62306 421.46507 432.30708 437.70857 447.45857 452.86006 463.70207 474.54408"> Protocol for the clinical utility evaluation study</tspan></text>
<text xml:space="preserve" transform="matrix(.4154786 0 0 .4154786 0 0)" font-size="19.5" font-family="Arial" font-weight="bold"><tspan y="1352.2908" x="729 743.079 753.92098 759.32247 770.1644 776.65798">D1.1: </tspan></text>
<text xml:space="preserve" transform="matrix(.4154786 0 0 .4154786 0 0)" font-size="19.5" font-family="ArialMT"><tspan y="1352.2908" x="782.1013 796.1803 802.6738 813.5158 824.3578 834.1078 843.8578 854.69979 865.54177 876.3837 881.7852 887.1867 898.0287 904.5222 909.9237 915.3252 926.1672 937.00918 942.41067 953.2526 963.0026 973.8446 978.1736 989.01559 999.85757 1005.25906 1009.588 1020.43 1031.272 1036.6735 1047.5155 1052.917 1058.3185 1068.0685 1072.3975 1076.7265 1087.5685 1091.8975 1101.6475 1112.4895 1116.8185 1122.22 1133.062 1138.4635 1142.7925 1147.1215 1151.4505 1156.8519">R-package for the evaluation of clinical utility</tspan></text>
<text xml:space="preserve" transform="matrix(.4154786 0 0 .4154786 0 0)" font-size="19.5" font-family="Arial" font-weight="bold"><tspan y="1379.8677" x="37 53.2435 64.0855 69.487 80.329">M1.2:</tspan></text>
<text xml:space="preserve" transform="matrix(.4154786 0 0 .4154786 0 0)" font-size="19.5" font-family="ArialMT"><tspan y="1379.8677" x="86.84497 92.24647 107.397968 118.23997 129.08197 139.92397 146.41747 156.16747 167.00946 177.85146 184.34496 194.09496 204.93695 210.33846 220.08846 230.93045 241.77245 252.61444 258.01594 263.41743 274.25944 280.75294 286.15443 291.5559 302.39793 313.23994 318.64143 328.39143 332.72044 337.04945 347.89146 352.22047 361.97047 372.81248 377.14149 382.54298 393.38499 398.78648 403.11549 407.4445 411.7735 417.175 426.925 432.32649 443.1685 452.9185 463.7605 468.0895 478.93153 489.77354 495.17503 499.50404 510.34605 521.18807 526.58956 536.33956 541.741 552.583 563.425"> Open-source code for the clinical utility evaluation study</tspan></text>
<text xml:space="preserve" transform="matrix(.4154786 0 0 .4154786 0 0)" font-size="19.5" font-family="Arial" font-weight="bold"><tspan y="1379.2908" x="729 743.079 753.92098 759.32247 770.1644 776.65798">D2.1: </tspan></text>
<text xml:space="preserve" transform="matrix(.4154786 0 0 .4154786 0 0)" font-size="19.5" font-family="ArialMT"><tspan y="1379.2908" x="782.1013 796.1803 802.6738 813.5158 824.3578 834.1078 843.8578 854.69979 865.54177 876.3837 881.7852 887.1867 898.0287 904.5222 909.9237 915.3252 921.8187 932.6607 936.9897 947.83169 952.16067 963.0026 973.8446 979.2461 985.7396 990.0686 999.8186 1009.5686 1016.06216 1026.9042 1037.7462 1047.4962 1058.3383 1069.1803 1074.5818 1087.5689 1100.5559 1116.7994">R-package for training risk-based BPMs</tspan></text>
<text xml:space="preserve" transform="matrix(.4154786 0 0 .4154786 0 0)" font-size="19.5" font-family="Arial" font-weight="bold"><tspan y="1406.8677" x="37 53.2435 64.0855 69.487 80.329">M2.1:</tspan></text>
<text xml:space="preserve" transform="matrix(.4154786 0 0 .4154786 0 0)" font-size="19.5" font-family="ArialMT"><tspan y="1406.8677" x="86.84497 92.24647 107.397968 118.23997 129.08197 139.92397 146.41747 156.16747 167.00946 177.85146 184.34496 194.09496 204.93695 210.33846 224.41745 230.91095 241.75295 252.59494 262.34495 272.09495 282.93696 293.77897 304.62098 310.02247 315.42396 326.26597 332.75947 338.16096 349.00297 354.40446 359.80595 365.20744 376.04945 386.89146 392.29295 402.04295 406.37196 422.61546 433.45747 437.78648 448.62849 454.02998 458.35899 469.201 480.043 485.4445 490.84599 497.33949 508.1815 524.425 535.26699 549.34597 560.1879 566.68148"> Open-source R-package for of the simulation framework</tspan></text>
<text xml:space="preserve" transform="matrix(.4154786 0 0 .4154786 0 0)" font-size="19.5" font-family="Arial" font-weight="bold"><tspan y="1406.2908" x="729 743.079 753.92098 759.32247 770.1644">D3.1:</tspan></text>
<text xml:space="preserve" transform="matrix(.4154786 0 0 .4154786 0 0)" font-size="19.5" font-family="ArialMT"><tspan y="1406.2908" x="776.6836 782.0851 796.16409 802.6576 813.4996 824.34158 834.09158 843.84158 854.68356 865.5255 876.3675 881.769 887.1705 898.01248 904.506 909.9075 915.30899 921.8025 932.6445 936.97348 947.8154 952.1444 962.9864 973.82839 979.22988 990.07186 1000.9138 1010.6638 1021.5058 1037.7493 1048.5913 1052.9203 1063.7623 1069.1638 1082.1509 1095.138 1111.3815"> R-package for training ensemble BPMs</tspan></text>
<text xml:space="preserve" transform="matrix(.4154786 0 0 .4154786 0 0)" font-size="19.5" font-family="Arial" font-weight="bold"><tspan y="1433.8677" x="37 53.2435 64.0855 69.487 80.329">M2.2:</tspan></text>
<text xml:space="preserve" transform="matrix(.4154786 0 0 .4154786 0 0)" font-size="19.5" font-family="ArialMT"><tspan y="1433.8677" x="86.84497 92.24647 105.23347 111.72697 122.56897 127.97047 138.81247 148.56247 159.40447 163.73346 169.13497 174.53647 185.37847 191.87197 197.27347 202.67498 213.51697 224.35897 229.76047 239.51047 243.83946 260.08299 270.925 275.254 286.096 291.4975 295.8265 306.66853 317.51054 322.91203 332.66203 338.0635 348.90553 359.74754 369.49754 374.89903 385.74104 396.58305 407.42506 412.82655 418.22804 429.07005 439.91206 445.31355 456.15556 466.99757 477.83958 482.16859 486.4976 496.2476 507.0896 512.4911 516.82009 527.66207"> Protocol for the simulation study and the application</tspan></text>
<text xml:space="preserve" transform="matrix(.4154786 0 0 .4154786 0 0)" font-size="19.5" font-family="Arial" font-weight="bold"><tspan y="1433.2908" x="729 743.079 753.92098 759.32247 770.1644 776.65798">D4.1: </tspan></text>
<text xml:space="preserve" transform="matrix(.4154786 0 0 .4154786 0 0)" font-size="19.5" font-family="ArialMT"><tspan y="1433.2908" x="782.1013 795.0883 805.9303 816.7723 821.10128 825.43026 835.18026 846.0222 851.4237 855.7527 866.59469 877.43667 882.83816 893.6801 899.0816 904.4831 915.3251 926.16708 937.00906 947.851 954.34457 959.74606 970.588 981.43 992.272 1003.11398 1008.51547 1013.91696 1019.3184 1030.1604 1041.0025 1046.4039 1059.391 1072.378 1088.6216 1094.0231 1103.7731 1108.102 1112.431 1123.2731 1127.602 1137.352 1148.1941 1152.5231 1157.9246 1168.7666 1174.1681 1178.4971 1182.826 1187.155 1192.5565 1202.3065 1207.708 1212.037 1222.879 1228.2805 1239.1226 1249.9646 1260.8067 1267.3002 1273.7937 1280.2872 1291.1293 1300.8793 1305.2083 1316.0503 1330.1293 1340.9713 1351.8134 1357.2149 1361.5438 1372.3859 1383.2279 1389.7214 1400.5635 1411.4055">Publication of paper about the BPM clinical utility in peer-reviewed journal</tspan></text>
<text xml:space="preserve" transform="matrix(.4154786 0 0 .4154786 0 0)" font-size="19.5" font-family="Arial" font-weight="bold"><tspan y="1460.8677" x="37 53.2435 64.0855 69.487 80.329">M2.3:</tspan></text>
<text xml:space="preserve" transform="matrix(.4154786 0 0 .4154786 0 0)" font-size="19.5" font-family="ArialMT"><tspan y="1460.8677" x="86.84497 92.24647 107.397968 118.23997 129.08197 139.92397 146.41747 156.16747 167.00946 177.85146 184.34496 194.09496 204.93695 210.33846 220.08846 230.93045 241.77245 252.61444 258.01594 263.41743 274.25944 280.75294 286.15443 291.5559 302.39793 313.23994 318.64143 325.13493 329.46394 339.21394 348.96394 355.45744 366.29945 377.14146 386.89146 397.73347 408.57548 413.97697 426.96397 439.95097 456.19447 461.59596 471.34596 476.74745 487.58946 498.43147"> Open-source code for the risk-based BPM study</tspan></text>
<text xml:space="preserve" transform="matrix(.4154786 0 0 .4154786 0 0)" font-size="19.5" font-family="Arial" font-weight="bold"><tspan y="1460.2908" x="729 743.079 753.92098 759.32247 770.1644">D4.2:</tspan></text>
<text xml:space="preserve" transform="matrix(.4154786 0 0 .4154786 0 0)" font-size="19.5" font-family="ArialMT"><tspan y="1460.2908" x="776.6836 782.0851 795.0721 805.91409 816.75607 821.085 825.414 835.164 846.006 851.4075 855.73648 866.5784 877.4204 882.8219 893.6639 899.06539 904.46688 915.30886 926.1508 936.9928 947.8348 954.3283 959.7298 970.5718 981.41378 992.25576 1003.0977 1008.4992 1013.9007 1020.3942 1024.7233 1034.4733 1044.2233 1050.7168 1061.5588 1072.4009 1082.1509 1092.9929 1103.835 1109.2365 1122.2235 1135.2106 1151.4541 1161.2041 1166.6056 1170.9346 1181.7766 1187.1781 1198.0202 1208.8622 1219.7042 1226.1978 1232.6913 1239.1848 1250.0269 1259.7769 1264.1058 1274.9479 1289.0269 1299.8689 1310.7109 1316.1124 1320.4414 1331.2835 1342.1255 1348.619 1359.461 1370.3031"> Publication of paper about risk-based BPMs in peer-reviewed journal</tspan></text>
<text xml:space="preserve" transform="matrix(.4154786 0 0 .4154786 0 0)" font-size="19.5" font-family="Arial" font-weight="bold"><tspan y="1487.8677" x="37 53.2435 64.0855 69.487 80.329">M3.1:</tspan></text>
<text xml:space="preserve" transform="matrix(.4154786 0 0 .4154786 0 0)" font-size="19.5" font-family="ArialMT"><tspan y="1487.8677" x="86.84497 92.24647 105.23347 111.72697 122.56897 127.97047 138.81247 148.56247 159.40447 163.73346 169.13497 174.53647 185.37847 191.87197 197.27347 202.67498 213.51697 224.35897 229.76047 240.60247 251.44446 261.19447 272.03648 288.27998 299.12199 303.451 314.293 319.6945 330.5365 341.3785 352.22053 363.06254 368.46403 372.79304 378.19453 383.596 394.43803 400.93153 411.77354 422.61555 426.94456 436.69456 442.09605 446.42506 457.26707 468.10908 473.51057 489.75407 500.59608 511.43809 522.2801 526.6091 530.93807 541.78 552.622 558.0235 567.7735 573.175 584.01699 594.85897"> Protocol for the ensemble benefit prediction modeling study</tspan></text>
<text xml:space="preserve" transform="matrix(.4154786 0 0 .4154786 0 0)" font-size="19.5" font-family="Arial" font-weight="bold"><tspan y="1487.2908" x="729 743.079 753.92098 759.32247 770.1644">D4.2:</tspan></text>
<text xml:space="preserve" transform="matrix(.4154786 0 0 .4154786 0 0)" font-size="19.5" font-family="ArialMT"><tspan y="1487.2908" x="776.6836 782.0851 795.0721 805.91409 816.75607 821.085 825.414 835.164 846.006 851.4075 855.73648 866.5784 877.4204 882.8219 893.6639 899.06539 904.46688 915.30886 926.1508 936.9928 947.8348 954.3283 959.7298 970.5718 981.41378 992.25576 1003.0977 1008.4992 1013.9007 1024.7427 1035.5847 1045.3347 1056.1768 1072.4203 1083.2623 1087.5913 1098.4334 1103.8348 1116.8219 1129.809 1146.0525 1155.8025 1161.204 1165.533 1176.375 1181.7765 1192.6185 1203.4606 1214.3026 1220.7962 1227.2897 1233.7832 1244.6253 1254.3753 1258.7042 1269.5463 1283.6253 1294.4673 1305.3093 1310.7108 1315.0398 1325.8818 1336.7239 1343.2174 1354.0595 1364.9015"> Publication of paper about ensemble BPMs in peer-reviewed journal</tspan></text>
<text xml:space="preserve" transform="matrix(.4154786 0 0 .4154786 0 0)" font-size="19.5" font-family="Arial" font-weight="bold"><tspan y="1514.8677" x="37 53.2435 64.0855 69.487 80.329">M3.2:</tspan></text>
<text xml:space="preserve" transform="matrix(.4154786 0 0 .4154786 0 0)" font-size="19.5" font-family="ArialMT"><tspan y="1514.8677" x="86.84497 92.24647 107.397968 118.23997 129.08197 139.92397 146.41747 156.16747 167.00946 177.85146 184.34496 194.09496 204.93695 210.33846 220.08846 230.93045 241.77245 252.61444 258.01594 263.41743 274.25944 280.75294 286.15443 291.5559 302.39793 313.23994 318.64143 329.48344 339.23344 350.07545 359.82545 370.66746 376.06895 380.39796 391.23997 402.08198 407.48347 418.32548 423.72697 429.12846 434.52995 445.37196 456.21397 461.61546 472.45747 483.29948 493.04948 503.89149 520.135 530.977 535.30599 546.14797 551.54946 564.53646 577.52346 593.76699 599.16848 608.91848 614.31997 625.1619 636.0039"> Open-source code for the execution of the ensemble BPM study</tspan></text>
<text xml:space="preserve" transform="matrix(.4154786 0 0 .4154786 0 0)" font-size="19.5" font-family="Arial" font-weight="bold"><tspan y="1514.2908" x="729 743.079 753.92098 759.32247 770.1644">D5.1:</tspan></text>
<text xml:space="preserve" transform="matrix(.4154786 0 0 .4154786 0 0)" font-size="19.5" font-family="ArialMT"><tspan y="1514.2908" x="776.6836 782.0851 787.4866 798.32858 803.73007 814.572 821.06558 825.39456 841.63809 847.03958 853.5331 864.37509 875.21707 886.059 892.55258"> Interim report</tspan></text>
<text xml:space="preserve" transform="matrix(.4154786 0 0 .4154786 0 0)" font-size="19.5" font-family="Arial" font-weight="bold"><tspan y="1541.8677" x="37 53.2435 64.0855 69.487 80.329">M4.1:</tspan></text>
<text xml:space="preserve" transform="matrix(.4154786 0 0 .4154786 0 0)" font-size="19.5" font-family="ArialMT"><tspan y="1541.8677" x="86.84497 92.24647 106.32547 110.65447 114.983478 125.82548 130.15448 139.90448 150.74648 155.07547 160.47698 171.31897 176.72048 181.04947 185.37847 189.70746 195.10897 204.85897 210.26047 221.10247 230.85247 241.69446 246.02346 256.86546 267.70747 273.10896 277.43797 288.27998 299.12199 304.52348 315.36549 326.2075 337.0495 347.8915 354.385 359.7865 370.6285 377.122 387.96403 398.80604 405.29954 409.62855 420.47056"> Clinical utility evaluation paper preprint</tspan></text>
<text xml:space="preserve" transform="matrix(.4154786 0 0 .4154786 0 0)" font-size="19.5" font-family="Arial" font-weight="bold"><tspan y="1541.2908" x="729 743.079 753.92098 759.32247 770.1644 776.65798">D5.2: </tspan></text>
<text xml:space="preserve" transform="matrix(.4154786 0 0 .4154786 0 0)" font-size="19.5" font-family="ArialMT"><tspan y="1541.2908" x="782.1013 793.99636 798.3253 809.1673 820.0093 824.33828 829.73977 836.2333 847.07528 857.91726 868.7592 875.25277">Final report</tspan></text>
<text xml:space="preserve" transform="matrix(.4154786 0 0 .4154786 0 0)" font-size="19.5" font-family="Arial" font-weight="bold"><tspan y="1568.8677" x="37 53.2435 64.0855 69.487 80.329 86.8225">M4.2: </tspan></text>
<text xml:space="preserve" transform="matrix(.4154786 0 0 .4154786 0 0)" font-size="19.5" font-family="ArialMT"><tspan y="1568.8677" x="92.262699 106.3417 110.6707 120.4207 130.1707 136.6642 147.5062 158.34819 168.09819 178.94019 189.78218 195.18369 208.17069 221.15769 237.40119 242.80269 253.64469 264.4867 275.3287 286.17073 292.6642 298.0657 308.9077 315.4012 326.24324 337.08525 343.57875 347.90776 358.74977">Risk-based BPM paper preprint</tspan></text>
<text xml:space="preserve" transform="matrix(.4154786 0 0 .4154786 0 0)" font-size="19.5" font-family="Arial" font-weight="bold"><tspan y="1595.8677" x="37 53.2435 64.0855 69.487 80.329">M4.3:</tspan></text>
<text xml:space="preserve" transform="matrix(.4154786 0 0 .4154786 0 0)" font-size="19.5" font-family="ArialMT"><tspan y="1595.8677" x="86.84497 92.24647 97.647968 110.634967 121.47697 131.22696 142.06896 158.31246 169.15445 173.48345 184.32544 189.72695 202.71395 215.70095 231.94445 237.34595 248.18795 259.02995 269.87196 280.71397 287.20747 292.60896 303.45097 309.94447 320.78648 331.62849 338.12199 342.451 353.293">  Ensemble BPM paper preprint</tspan></text>
<text xml:space="preserve" transform="matrix(.4154786 0 0 .4154786 0 0)" font-size="19.5" font-family="Arial" font-weight="bold"><tspan y="1622.8677" x="37 53.2435 64.0855 69.487 80.329 86.8225">M5.1: </tspan></text>
<text xml:space="preserve" transform="matrix(.4154786 0 0 .4154786 0 0)" font-size="19.5" font-family="ArialMT"><tspan y="1622.8677" x="92.262699 105.249698 110.65119 121.493198 125.8222 135.5722 145.3222 150.72371 161.5657 172.4077 183.2497 189.7432 200.58519 210.33519 221.17719 225.50618 230.90769 236.30919 247.15119 253.64469 259.04618 268.79618 273.12519 277.4542 288.2962 292.6252 302.3752 313.21723 317.54624 322.94773 333.78974 339.19123 343.52024 347.84925 352.17826 357.57975 367.32975 372.73124 383.57325 393.32325 404.16526 408.49427 419.33628 430.17829 435.57978 439.90879 450.7508 461.5928 466.9943 476.7443 482.14579 492.9878 503.8298">Ethics approval for clinical utility evaluation study</tspan></text>
<text xml:space="preserve" transform="matrix(.4154786 0 0 .4154786 0 0)" font-size="19.5" font-family="Arial" font-weight="bold"><tspan y="1649.8677" x="37 53.2435 64.0855 69.487 80.329 86.8225">M5.2: </tspan></text>
<text xml:space="preserve" transform="matrix(.4154786 0 0 .4154786 0 0)" font-size="19.5" font-family="ArialMT"><tspan y="1649.8677" x="92.262699 105.249698 110.65119 121.493198 125.8222 135.5722 145.3222 150.72371 161.5657 172.4077 183.2497 189.7432 200.58519 210.33519 221.17719 225.50618 230.90769 236.30919 247.15119 253.64469 259.04618 265.53968 269.86869 279.61869 289.36869 295.86219 306.7042 317.5462 327.2962 338.1382 348.98023 354.3817 359.7832 370.6252 381.46723 392.30924 403.15126 408.55274 412.88175 418.28324 423.68473 434.52674 441.02024 451.86225 462.70426 467.03327 476.78327 482.18476 486.51377 497.35578 508.19779 513.5993 523.3493 528.7508 539.5928 550.43478">Ethics approval for risk-based  benefit prediction study</tspan></text>
<text xml:space="preserve" transform="matrix(.4154786 0 0 .4154786 0 0)" font-size="19.5" font-family="Arial" font-weight="bold"><tspan y="1676.8677" x="37 53.2435 64.0855 69.487 80.329 86.8225">M5.3: </tspan></text>
<text xml:space="preserve" transform="matrix(.4154786 0 0 .4154786 0 0)" font-size="19.5" font-family="ArialMT"><tspan y="1676.8677" x="92.262699 105.249698 110.65119 121.493198 125.8222 135.5722 145.3222 150.72371 161.5657 172.4077 183.2497 189.7432 200.58519 210.33519 221.17719 225.50618 230.90769 236.30919 247.15119 253.64469 259.04618 269.88819 280.7302 290.4802 301.3222 317.5657 328.4077 332.73674 343.57875 348.98023 359.82225 370.66426 381.50627 392.34828 397.74977 402.07878 407.48027 412.88175 423.72377 430.21726 441.05928 451.90129 456.2303 465.9803 471.38179 475.7108 486.5528 497.3948 502.7963 512.54629 517.94778 528.78976 539.6317">Ethics approval for ensemble benefit prediction study</tspan></text>
</g>
</g>
</svg>
